<svg width="16" height="16" viewBox="0 0 16 16" fill="none" xmlns="http://www.w3.org/2000/svg">
<g clip-path="url(#clip0_118_11)">
<path d="M14.2843 2.09528H13.5227V4.19813C13.5227 4.6667 13.4336 4.76194 12.9574 4.76194H10.6652C10.189 4.76194 10.0942 4.6587 10.0942 4.19051V2.09528H5.90369V4.19813C5.90369 4.6667 5.80845 4.76194 5.33226 4.76194H3.04655C2.57036 4.76194 2.47512 4.6587 2.47512 4.19051V2.09528H1.71322C0.730358 2.09528 0.570358 2.30899 0.570358 3.23813V14.285C0.566549 15.2107 0.79893 15.4286 1.71322 15.4286H14.2843C15.2557 15.4286 15.4275 15.2263 15.4275 14.285V3.23813C15.4275 2.34289 15.2824 2.09528 14.2843 2.09528ZM13.5227 13.5238H2.47512V5.9048H13.5227V13.5238Z" fill="#E53935"/>
<path d="M3.80971 4.00001H4.57161C5.04781 4.00001 5.14304 3.90477 5.14304 3.4362V1.53144C5.14304 1.05525 5.04019 0.960012 4.57161 0.960012L3.80971 0.952393C3.35676 0.952393 3.23828 1.05906 3.23828 1.52382V3.42858C3.23828 3.89677 3.33352 4.00001 3.80971 4.00001Z" fill="#E53935"/>
<path d="M11.4265 4.00001H12.1884C12.6646 4.00001 12.7602 3.90477 12.7602 3.4362V1.53144C12.7602 1.05525 12.6574 0.960012 12.1888 0.960012L11.4269 0.952393C10.9739 0.952393 10.8555 1.05906 10.8555 1.52382V3.42858C10.8555 3.89677 10.9503 4.00001 11.4265 4.00001Z" fill="#E53935"/>
<path d="M5.90476 7.42859H4V9.33335H5.90476V7.42859Z" fill="#E53935"/>
<path d="M8.95164 7.42859H7.04688V9.33335H8.95164V7.42859Z" fill="#E53935"/>
<path d="M11.9985 7.42859H10.0938V9.33335H11.9985V7.42859Z" fill="#E53935"/>
<path d="M5.90476 10.4762H4V12.381H5.90476V10.4762Z" fill="#E53935"/>
<path d="M8.95164 10.4762H7.04688V12.381H8.95164V10.4762Z" fill="#E53935"/>
<path d="M11.9985 10.4762H10.0938V12.381H11.9985V10.4762Z" fill="#E53935"/>
</g>
<defs>
<clipPath id="clip0_118_11">
<rect width="16" height="16" fill="white"/>
</clipPath>
</defs>
</svg>
