<svg width="16" height="16" viewBox="0 0 16 16" fill="none" xmlns="http://www.w3.org/2000/svg">
<g clip-path="url(#clip0_118_27)">
<path d="M11.4714 9.00003C11.3589 7.98617 10.9052 7.04061 10.1848 6.31839C9.46442 5.59617 8.52002 5.14014 7.50645 5.02507C6.49288 4.91 5.47028 5.14271 4.60632 5.68505C3.74235 6.2274 3.08829 7.04719 2.75136 8.01003C1.9793 8.07322 1.26161 8.43261 0.748526 9.01296C0.235438 9.59332 -0.0332721 10.3496 -0.00135657 11.1236C0.030559 11.8976 0.360626 12.6293 0.919753 13.1654C1.47888 13.7015 2.22372 14.0006 2.99836 14H11.4984C12.1614 13.9964 12.7959 13.7296 13.2622 13.2582C13.7285 12.7869 13.9884 12.1496 13.9849 11.4865C13.9813 10.8235 13.7145 10.189 13.2431 9.72272C12.7717 9.25641 12.1344 8.99645 11.4714 9.00003Z" fill="#E53935"/>
<path d="M14.5425 9.77202C14.3058 9.35546 13.9862 8.99182 13.6036 8.70356C13.2209 8.4153 12.7832 8.20853 12.3175 8.09602C11.9624 6.75166 11.1114 5.5916 9.93578 4.84914C8.76012 4.10668 7.34696 3.83689 5.98047 4.09402C6.36396 3.38783 6.95116 2.81345 7.66564 2.44564C8.38012 2.07783 9.18878 1.93363 9.98635 2.03182C10.7839 2.13001 11.5335 2.46603 12.1374 2.99614C12.7413 3.52625 13.1717 4.22591 13.3725 5.00402C13.953 4.97438 14.5257 5.14797 14.9921 5.49493C15.4585 5.8419 15.7894 6.34054 15.9279 6.9051C16.0664 7.46965 16.0039 8.06483 15.751 8.58825C15.4982 9.11167 15.0708 9.52961 14.5425 9.77202Z" fill="#E53935"/>
</g>
<defs>
<clipPath id="clip0_118_27">
<rect width="16" height="16" fill="white"/>
</clipPath>
</defs>
</svg>
