<svg width="16" height="16" viewBox="0 0 16 16" fill="none" xmlns="http://www.w3.org/2000/svg">
<path fill-rule="evenodd" clip-rule="evenodd" d="M7.3357 1.33331H8.6617C9.5857 1.33331 10.3206 1.33331 10.9131 1.38251C11.52 1.43291 12.037 1.53835 12.5092 1.78366C13.2398 2.16316 13.8355 2.75884 14.215 3.48941C14.4604 3.96167 14.5658 4.47872 14.6162 5.08557C14.6654 5.67813 14.6654 6.41298 14.6654 7.33698V8.66298C14.6654 9.58698 14.6654 10.3218 14.6162 10.9144C14.5658 11.5212 14.4604 12.0383 14.215 12.5105C13.8355 13.2411 13.2398 13.8368 12.5092 14.2163C12.037 14.4616 11.52 14.567 10.9131 14.6174C10.3206 14.6666 9.5857 14.6666 8.6617 14.6666H7.3357C6.4117 14.6666 5.67684 14.6666 5.08429 14.6174C4.47744 14.567 3.96038 14.4616 3.48813 14.2163C2.75756 13.8368 2.16188 13.2411 1.78238 12.5105C1.53706 12.0383 1.43162 11.5212 1.38123 10.9144C1.33202 10.3218 1.33202 9.58698 1.33203 8.66298V7.33698C1.33202 6.41297 1.33202 5.67812 1.38123 5.08557C1.43162 4.47872 1.53706 3.96167 1.78238 3.48941C2.16188 2.75884 2.75756 2.16316 3.48813 1.78366C3.96038 1.53835 4.47744 1.43291 5.08429 1.38251C5.67684 1.33331 6.41169 1.33331 7.3357 1.33331ZM5.19464 2.71127C4.67173 2.75469 4.35298 2.8369 4.10276 2.96688C3.61572 3.21988 3.2186 3.617 2.9656 4.10405C2.83562 4.35426 2.75341 4.67301 2.70999 5.19592C2.6659 5.72681 2.66536 6.40631 2.66536 7.36665V8.63331C2.66536 9.59365 2.6659 10.2731 2.70999 10.804C2.75341 11.327 2.83562 11.6457 2.9656 11.8959C3.2186 12.383 3.61572 12.7801 4.10276 13.0331C4.35298 13.163 4.67173 13.2452 5.19464 13.2887C5.72553 13.3328 6.40502 13.3333 7.36536 13.3333H8.63203C9.59236 13.3333 10.2718 13.3328 10.8028 13.2887C11.3257 13.2452 11.6444 13.163 11.8946 13.0331C12.3817 12.7801 12.7788 12.383 13.0318 11.8959C13.1618 11.6457 13.244 11.327 13.2874 10.804C13.3315 10.2731 13.332 9.59365 13.332 8.63331V7.36665C13.332 6.40631 13.3315 5.72681 13.2874 5.19592C13.244 4.67301 13.1618 4.35426 13.0318 4.10405C12.7788 3.617 12.3817 3.21988 11.8946 2.96688C11.6444 2.8369 11.3257 2.75469 10.8028 2.71127C10.2718 2.66718 9.59236 2.66665 8.63203 2.66665H7.36536C6.40502 2.66665 5.72553 2.66718 5.19464 2.71127ZM7.8843 4.50489C8.2525 4.50489 8.55096 4.80336 8.55096 5.17155V8.48298L10.9022 9.37685C11.2464 9.50765 11.4194 9.89271 11.2885 10.2368C11.1577 10.581 10.7726 10.754 10.4285 10.6231L7.64743 9.56598C7.3887 9.46758 7.21763 9.21958 7.21763 8.94278V5.17155C7.21763 4.80336 7.5161 4.50489 7.8843 4.50489Z" fill="#E53935"/>
</svg>
