<svg width="13" height="13" viewBox="0 0 13 13" fill="none" xmlns="http://www.w3.org/2000/svg">
<path d="M8.93638 7.25516L5.50781 10.6837C5.46317 10.7239 5.41183 10.744 5.35379 10.744C5.29576 10.744 5.24442 10.7239 5.19978 10.6837L3.27121 8.75516C3.23103 8.71052 3.21094 8.65918 3.21094 8.60114C3.21094 8.54311 3.23103 8.494 3.27121 8.45382L3.57924 8.14579C3.61942 8.10561 3.66853 8.08552 3.72656 8.08552C3.7846 8.08552 3.83594 8.10561 3.88058 8.14579L5.35379 9.619L8.32701 6.64579C8.37165 6.60561 8.42299 6.58552 8.48103 6.58552C8.53906 6.58552 8.58817 6.60561 8.62835 6.64579L8.93638 6.95382C8.97656 6.994 8.99665 7.04311 8.99665 7.10114C8.99665 7.15918 8.97656 7.21052 8.93638 7.25516ZM1.06808 11.9427H10.4967V5.08552H1.06808V11.9427ZM3.63951 3.7998V1.87123C3.63951 1.80873 3.61942 1.75739 3.57924 1.71722C3.53906 1.67704 3.48772 1.65695 3.42522 1.65695H2.99665C2.93415 1.65695 2.88281 1.67704 2.84263 1.71722C2.80246 1.75739 2.78237 1.80873 2.78237 1.87123V3.7998C2.78237 3.8623 2.80246 3.91364 2.84263 3.95382C2.88281 3.994 2.93415 4.01409 2.99665 4.01409H3.42522C3.48772 4.01409 3.53906 3.994 3.57924 3.95382C3.61942 3.91364 3.63951 3.8623 3.63951 3.7998ZM8.78237 3.7998V1.87123C8.78237 1.80873 8.76228 1.75739 8.7221 1.71722C8.68192 1.67704 8.63058 1.65695 8.56808 1.65695H8.13951C8.07701 1.65695 8.02567 1.67704 7.98549 1.71722C7.94531 1.75739 7.92522 1.80873 7.92522 1.87123V3.7998C7.92522 3.8623 7.94531 3.91364 7.98549 3.95382C8.02567 3.994 8.07701 4.01409 8.13951 4.01409H8.56808C8.63058 4.01409 8.68192 3.994 8.7221 3.95382C8.76228 3.91364 8.78237 3.8623 8.78237 3.7998ZM11.3538 3.37123V11.9427C11.3538 12.1748 11.269 12.3757 11.0993 12.5453C10.9297 12.715 10.7288 12.7998 10.4967 12.7998H1.06808C0.835938 12.7998 0.635045 12.715 0.465402 12.5453C0.295759 12.3757 0.210938 12.1748 0.210938 11.9427V3.37123C0.210938 3.13909 0.295759 2.9382 0.465402 2.76855C0.635045 2.59891 0.835938 2.51409 1.06808 2.51409H1.92522V1.87123C1.92522 1.57659 2.03013 1.32436 2.23996 1.11454C2.44978 0.904715 2.70201 0.799805 2.99665 0.799805H3.42522C3.71987 0.799805 3.9721 0.904715 4.18192 1.11454C4.39174 1.32436 4.49665 1.57659 4.49665 1.87123V2.51409H7.06808V1.87123C7.06808 1.57659 7.17299 1.32436 7.38281 1.11454C7.59263 0.904715 7.84487 0.799805 8.13951 0.799805H8.56808C8.86272 0.799805 9.11496 0.904715 9.32478 1.11454C9.5346 1.32436 9.63951 1.57659 9.63951 1.87123V2.51409H10.4967C10.7288 2.51409 10.9297 2.59891 11.0993 2.76855C11.269 2.9382 11.3538 3.13909 11.3538 3.37123Z" fill="#FF1744"/>
</svg>
