<svg width="9" height="13" viewBox="0 0 9 13" fill="none" xmlns="http://www.w3.org/2000/svg">
<path d="M8.97573 10.1683C8.97573 10.6549 8.83622 11.0723 8.5572 11.4205C8.27818 11.7688 7.94224 11.9429 7.54939 11.9429H1.83064C1.43778 11.9429 1.10184 11.7688 0.822824 11.4205C0.543806 11.0723 0.404297 10.6549 0.404297 10.1683C0.404297 9.78885 0.42327 9.43059 0.461217 9.09354C0.499163 8.75649 0.569475 8.4172 0.672154 8.07568C0.774833 7.73417 0.905413 7.44176 1.0639 7.19845C1.22238 6.95515 1.4322 6.75649 1.69336 6.60247C1.95452 6.44845 2.25474 6.37144 2.59403 6.37144C3.17885 6.94287 3.87751 7.22859 4.69001 7.22859C5.50251 7.22859 6.20117 6.94287 6.78599 6.37144C7.12528 6.37144 7.4255 6.44845 7.68666 6.60247C7.94782 6.75649 8.15764 6.95515 8.31613 7.19845C8.47461 7.44176 8.60519 7.73417 8.70787 8.07568C8.81055 8.4172 8.88086 8.75649 8.91881 9.09354C8.95675 9.43059 8.97573 9.78885 8.97573 10.1683ZM6.50809 2.41051C6.50809 2.41051 6.63365 2.53606 6.88477 2.78718C7.13588 3.0383 7.26144 3.51876 7.26144 4.22859C7.26144 4.93841 7.01032 5.54443 6.50809 6.04667C6.00586 6.5489 5.39983 6.80001 4.69001 6.80001C3.98019 6.80001 3.37416 6.5489 2.87193 6.04667C2.3697 5.54443 2.11858 4.93841 2.11858 4.22859C2.11858 3.51876 2.3697 2.91274 2.87193 2.41051C3.37416 1.90827 3.98019 1.65716 4.69001 1.65716C5.39983 1.65716 6.00586 1.90827 6.50809 2.41051Z" fill="#FF1744"/>
</svg>
