<svg width="53" height="54" viewBox="0 0 53 54" fill="none" xmlns="http://www.w3.org/2000/svg">
<rect width="53" height="53" transform="matrix(-1 0 0 -1 53 53.51)" fill="#E53935"/>
<path d="M33.125 46.885C37.4036 46.885 40.6816 45.7463 42.959 43.469C45.2363 41.1917 46.375 37.9137 46.375 33.635V7.13501H29.8125V33.635H39.75C39.75 35.9814 39.2324 37.6721 38.1973 38.7073C37.1621 39.7424 35.4714 40.26 33.125 40.26V46.885ZM9.9375 46.885C14.2161 46.885 17.4941 45.7463 19.7715 43.469C22.0488 41.1917 23.1875 37.9137 23.1875 33.635V7.13501H6.625V33.635H16.5625C16.5625 35.9814 16.0449 37.6721 15.0098 38.7073C13.9746 39.7424 12.2839 40.26 9.9375 40.26V46.885Z" fill="white"/>
</svg>
