<svg width="14" height="14" viewBox="0 0 14 14" fill="none" xmlns="http://www.w3.org/2000/svg">
<path d="M11.1384 11.3701C12.5871 11.9167 13.3114 12.6274 13.3114 13.5021H6.75141H0.191406C0.191406 12.6274 0.91574 11.9167 2.36441 11.3701C2.58307 11.2881 2.91107 11.2129 3.34841 11.1446C3.78574 11.0762 4.04541 11.0284 4.12741 11.0011C4.59207 10.8644 4.86541 10.7414 4.94741 10.6321L4.98841 8.95108C4.82441 8.67774 4.70141 8.43174 4.61941 8.21308L4.33241 6.90108C4.14107 6.90108 4.01807 6.73708 3.96341 6.40908C3.93607 6.24508 3.88824 6.05374 3.81991 5.83508C3.75157 5.61641 3.71741 5.43874 3.71741 5.30208C3.71741 5.19274 3.73107 5.10391 3.75841 5.03558C3.78574 4.96724 3.82674 4.91941 3.88141 4.89208H3.92241C3.81307 4.53674 3.74474 3.96274 3.71741 3.17008C3.69007 2.43208 3.94974 1.78291 4.49641 1.22258C5.04307 0.662243 5.79474 0.382076 6.75141 0.382076C7.70807 0.382076 8.45974 0.662243 9.00641 1.22258C9.55307 1.78291 9.81274 2.43208 9.78541 3.17008L9.58041 4.89208C9.71707 4.91941 9.78541 5.05608 9.78541 5.30208C9.78541 5.35674 9.70341 5.73941 9.53941 6.45008C9.51207 6.58674 9.47107 6.69608 9.41641 6.77808C9.36174 6.86008 9.30707 6.91474 9.25241 6.94208H9.17041C9.06107 7.57074 8.96541 7.99441 8.88341 8.21308L8.51441 8.95108C8.45974 9.96241 8.47341 10.5227 8.55541 10.6321C8.63741 10.7414 8.91074 10.8644 9.37541 11.0011C9.45741 11.0284 9.71707 11.0762 10.1544 11.1446C10.5917 11.2129 10.9197 11.2881 11.1384 11.3701Z" fill="white"/>
</svg>
