<svg width="22" height="14" viewBox="0 0 22 14" fill="none" xmlns="http://www.w3.org/2000/svg">
<path d="M21.7266 6.92993L21.7812 6.98462L21.4531 7.31274C19.6302 9.13566 18.2083 10.3935 17.1875 11.0862C15.2188 12.3987 13.25 13.0549 11.2812 13.0549C9.85938 13.0549 8.5013 12.745 7.20703 12.1252C5.91276 11.5055 4.91927 10.8857 4.22656 10.2659C3.53385 9.64608 2.51302 8.6617 1.16406 7.31274L0.78125 6.92993L0.835938 6.87524C2.84115 4.83358 4.55469 3.35701 5.97656 2.44556C7.72656 1.35181 9.49479 0.804932 11.2812 0.804932C14.7083 0.804932 18.1901 2.8466 21.7266 6.92993ZM11.2812 1.67993C9.67708 1.67993 8.16406 2.10832 6.74219 2.96509C5.32031 3.82186 3.73438 5.14347 1.98438 6.92993C3.95312 8.89868 5.33854 10.1383 6.14062 10.6487C7.67188 11.6695 9.38542 12.1799 11.2812 12.1799C12.5573 12.1799 13.8424 11.8609 15.1367 11.2229C16.431 10.5849 17.4336 9.95597 18.1445 9.33618C18.8555 8.71639 19.6849 7.93254 20.6328 6.98462C19.2839 5.48983 17.9349 4.2867 16.5859 3.37524C14.8724 2.24504 13.1042 1.67993 11.2812 1.67993ZM14.3711 10.0198C14.3711 10.0198 14.1569 10.234 13.7285 10.6624C13.3001 11.0907 12.4844 11.3049 11.2812 11.3049C10.0781 11.3049 9.04818 10.8765 8.19141 10.0198C7.33464 9.163 6.90625 8.13306 6.90625 6.92993C6.90625 5.72681 7.33464 4.69686 8.19141 3.84009C9.04818 2.98332 10.0781 2.55493 11.2812 2.55493C12.4844 2.55493 13.5143 2.98332 14.3711 3.84009C15.2279 4.69686 15.6562 5.72681 15.6562 6.92993C15.6562 8.13306 15.2279 9.163 14.3711 10.0198ZM13.7422 4.46899C13.7422 4.46899 13.569 4.29582 13.2227 3.94946C12.8763 3.60311 12.2292 3.42993 11.2812 3.42993C10.3333 3.42993 9.51302 3.77629 8.82031 4.46899C8.1276 5.1617 7.78125 5.98202 7.78125 6.92993C7.78125 7.87785 8.1276 8.69816 8.82031 9.39087C9.51302 10.0836 10.3333 10.4299 11.2812 10.4299C12.2292 10.4299 13.0495 10.0836 13.7422 9.39087C14.4349 8.69816 14.7812 7.87785 14.7812 6.92993C14.7812 5.98202 14.4349 5.1617 13.7422 4.46899ZM13.0312 6.92993H13.9062C13.9062 7.6591 13.651 8.27889 13.1406 8.78931C12.6302 9.29972 12.0104 9.55493 11.2812 9.55493C10.5521 9.55493 9.93229 9.29972 9.42188 8.78931C8.91146 8.27889 8.65625 7.6591 8.65625 6.92993C8.65625 6.20077 8.91146 5.58097 9.42188 5.07056C9.93229 4.56014 10.5521 4.30493 11.2812 4.30493V5.17993C10.8438 5.17993 10.4427 5.34399 10.0781 5.67212C9.71354 6.00024 9.53125 6.40129 9.53125 6.87524C9.53125 7.3492 9.70443 7.76847 10.0508 8.13306C10.3971 8.49764 10.8073 8.67993 11.2812 8.67993C11.7552 8.67993 12.1654 8.50675 12.5117 8.1604C12.8581 7.81405 13.0312 7.40389 13.0312 6.92993Z" fill="white"/>
</svg>
